G04*
G04 #@! TF.GenerationSoftware,Altium Limited,Altium Designer,20.1.14 (287)*
G04*
G04 Layer_Physical_Order=2*
G04 Layer_Color=16711680*
%FSLAX25Y25*%
%MOIN*%
G70*
G04*
G04 #@! TF.SameCoordinates,1C3036EA-9198-4DC0-AC4A-3EF54EA2E58D*
G04*
G04*
G04 #@! TF.FilePolarity,Positive*
G04*
G01*
G75*
%ADD36C,0.00600*%
%ADD37C,0.18000*%
%ADD38C,0.06299*%
%ADD39R,0.06299X0.06299*%
%ADD40C,0.02200*%
%ADD41C,0.01000*%
G36*
X96896Y1529D02*
X1529D01*
Y96896D01*
X96896D01*
Y1529D01*
D02*
G37*
%LPC*%
G36*
X81000Y67133D02*
X80337Y67001D01*
X79774Y66626D01*
X79569Y66318D01*
X61463D01*
X61112Y66248D01*
X60814Y66049D01*
X53119Y58354D01*
X52756Y58426D01*
X52093Y58294D01*
X51530Y57919D01*
X51155Y57356D01*
X51023Y56693D01*
X51155Y56030D01*
X51530Y55467D01*
X51838Y55261D01*
Y33444D01*
X51908Y33093D01*
X51952Y33028D01*
X51867Y32600D01*
X51999Y31937D01*
X52374Y31374D01*
X52937Y30999D01*
X53600Y30867D01*
X54263Y30999D01*
X54826Y31374D01*
X55201Y31937D01*
X55333Y32600D01*
X55201Y33263D01*
X54826Y33826D01*
X54263Y34201D01*
X53673Y34319D01*
Y55261D01*
X53982Y55467D01*
X54357Y56030D01*
X54489Y56693D01*
X54417Y57056D01*
X61843Y64482D01*
X79569D01*
X79774Y64174D01*
X80337Y63799D01*
X81000Y63667D01*
X81663Y63799D01*
X82226Y64174D01*
X82601Y64737D01*
X82733Y65400D01*
X82601Y66063D01*
X82226Y66626D01*
X81663Y67001D01*
X81000Y67133D01*
D02*
G37*
G36*
X8366Y63585D02*
X7387Y63456D01*
X6475Y63078D01*
X5692Y62477D01*
X5091Y61694D01*
X4713Y60782D01*
X4584Y59803D01*
X4713Y58824D01*
X5091Y57912D01*
X5692Y57129D01*
X6475Y56528D01*
X7387Y56150D01*
X8366Y56021D01*
X9345Y56150D01*
X10257Y56528D01*
X11040Y57129D01*
X11641Y57912D01*
X12019Y58824D01*
X12148Y59803D01*
X12019Y60782D01*
X11641Y61694D01*
X11040Y62477D01*
X10257Y63078D01*
X9345Y63456D01*
X8366Y63585D01*
D02*
G37*
G36*
X93907Y62962D02*
X86408D01*
Y55463D01*
X93907D01*
Y62962D01*
D02*
G37*
G36*
X8866Y53923D02*
Y50303D01*
X12486D01*
X12409Y50886D01*
X11991Y51896D01*
X11326Y52763D01*
X10459Y53428D01*
X9449Y53846D01*
X8866Y53923D01*
D02*
G37*
G36*
X7866D02*
X7283Y53846D01*
X6273Y53428D01*
X5407Y52763D01*
X4741Y51896D01*
X4323Y50886D01*
X4247Y50303D01*
X7866D01*
Y53923D01*
D02*
G37*
G36*
X90658Y53332D02*
Y49713D01*
X94277D01*
X94200Y50296D01*
X93782Y51305D01*
X93117Y52172D01*
X92250Y52837D01*
X91241Y53255D01*
X90658Y53332D01*
D02*
G37*
G36*
X89657D02*
X89074Y53255D01*
X88065Y52837D01*
X87198Y52172D01*
X86533Y51305D01*
X86115Y50296D01*
X86038Y49713D01*
X89657D01*
Y53332D01*
D02*
G37*
G36*
X12486Y49303D02*
X8866D01*
Y45684D01*
X9449Y45760D01*
X10459Y46178D01*
X11326Y46844D01*
X11991Y47710D01*
X12409Y48720D01*
X12486Y49303D01*
D02*
G37*
G36*
X7866D02*
X4247D01*
X4323Y48720D01*
X4741Y47710D01*
X5407Y46844D01*
X6273Y46178D01*
X7283Y45760D01*
X7866Y45684D01*
Y49303D01*
D02*
G37*
G36*
X94277Y48713D02*
X90658D01*
Y45093D01*
X91241Y45170D01*
X92250Y45588D01*
X93117Y46253D01*
X93782Y47120D01*
X94200Y48129D01*
X94277Y48713D01*
D02*
G37*
G36*
X89657D02*
X86038D01*
X86115Y48129D01*
X86533Y47120D01*
X87198Y46253D01*
X88065Y45588D01*
X89074Y45170D01*
X89657Y45093D01*
Y48713D01*
D02*
G37*
G36*
X57284Y56261D02*
X56620Y56129D01*
X56058Y55753D01*
X55682Y55191D01*
X55550Y54528D01*
X55682Y53864D01*
X56058Y53302D01*
X56366Y53096D01*
Y47691D01*
X56058Y47486D01*
X55682Y46923D01*
X55550Y46260D01*
X55682Y45597D01*
X56058Y45034D01*
X56620Y44658D01*
X57284Y44526D01*
X57361Y44542D01*
X57925Y43731D01*
X57925Y43731D01*
X57927Y43729D01*
X57986Y43672D01*
X58090Y43515D01*
X58587Y43183D01*
X59172Y43067D01*
Y43078D01*
X63628D01*
X63833Y42770D01*
X64396Y42395D01*
X65059Y42263D01*
X65722Y42395D01*
X66285Y42770D01*
X66660Y43333D01*
X66792Y43996D01*
X66660Y44659D01*
X66285Y45222D01*
X65722Y45597D01*
X65059Y45729D01*
X64396Y45597D01*
X63833Y45222D01*
X63628Y44914D01*
X59338D01*
X58874Y45580D01*
X58885Y45597D01*
X59017Y46260D01*
X58885Y46923D01*
X58509Y47486D01*
X58201Y47691D01*
Y53096D01*
X58509Y53302D01*
X58885Y53864D01*
X59017Y54528D01*
X58885Y55191D01*
X58509Y55753D01*
X57947Y56129D01*
X57284Y56261D01*
D02*
G37*
G36*
X12116Y43553D02*
X4617D01*
Y36054D01*
X12116D01*
Y43553D01*
D02*
G37*
G36*
X90158Y42995D02*
X89179Y42866D01*
X88266Y42488D01*
X87483Y41887D01*
X86882Y41104D01*
X86504Y40191D01*
X86375Y39213D01*
X86504Y38234D01*
X86882Y37322D01*
X87483Y36538D01*
X88266Y35937D01*
X89179Y35559D01*
X90158Y35431D01*
X91136Y35559D01*
X92049Y35937D01*
X92832Y36538D01*
X93433Y37322D01*
X93811Y38234D01*
X93939Y39213D01*
X93811Y40191D01*
X93433Y41104D01*
X92832Y41887D01*
X92049Y42488D01*
X91136Y42866D01*
X90158Y42995D01*
D02*
G37*
%LPD*%
D36*
X58681Y44251D02*
G03*
X59172Y43996I491J345D01*
G01*
X57200Y54444D02*
X57284Y54528D01*
Y46260D02*
Y54528D01*
X57284Y46260D02*
X57284Y46260D01*
X52756Y33444D02*
Y56693D01*
Y33444D02*
X53600Y32600D01*
X52756Y56693D02*
X52756D01*
X61463Y65400D01*
X59172Y43996D02*
X65059D01*
X58679Y44253D02*
X58681Y44251D01*
X57284Y46260D02*
X58679Y44253D01*
X61463Y65400D02*
X81000D01*
D37*
X15000Y15000D02*
D03*
X85000Y85000D02*
D03*
X15000D02*
D03*
X85000Y15000D02*
D03*
D38*
X8366Y59803D02*
D03*
Y49803D02*
D03*
X90158Y39213D02*
D03*
Y49213D02*
D03*
D39*
X8366Y39803D02*
D03*
X90158Y59213D02*
D03*
D40*
X57284Y46260D02*
D03*
X49213Y50787D02*
D03*
X49213Y47835D02*
D03*
X52756Y56693D02*
D03*
X57284Y54528D02*
D03*
X65059Y43996D02*
D03*
X81000Y65400D02*
D03*
X53600Y32600D02*
D03*
D41*
X8366Y49803D02*
X9783D01*
M02*
