G04*
G04 #@! TF.GenerationSoftware,Altium Limited,Altium Designer,20.1.14 (287)*
G04*
G04 Layer_Color=8388736*
%FSLAX25Y25*%
%MOIN*%
G70*
G04*
G04 #@! TF.SameCoordinates,1C3036EA-9198-4DC0-AC4A-3EF54EA2E58D*
G04*
G04*
G04 #@! TF.FilePolarity,Negative*
G04*
G01*
G75*
%ADD23R,0.04095X0.06850*%
G04:AMPARAMS|DCode=24|XSize=15.35mil|YSize=25.2mil|CornerRadius=5.22mil|HoleSize=0mil|Usage=FLASHONLY|Rotation=90.000|XOffset=0mil|YOffset=0mil|HoleType=Round|Shape=RoundedRectangle|*
%AMROUNDEDRECTD24*
21,1,0.01535,0.01476,0,0,90.0*
21,1,0.00492,0.02520,0,0,90.0*
1,1,0.01043,0.00738,0.00246*
1,1,0.01043,0.00738,-0.00246*
1,1,0.01043,-0.00738,-0.00246*
1,1,0.01043,-0.00738,0.00246*
%
%ADD24ROUNDEDRECTD24*%
%ADD25R,0.02520X0.01535*%
G04:AMPARAMS|DCode=26|XSize=133.98mil|YSize=47.37mil|CornerRadius=13.84mil|HoleSize=0mil|Usage=FLASHONLY|Rotation=180.000|XOffset=0mil|YOffset=0mil|HoleType=Round|Shape=RoundedRectangle|*
%AMROUNDEDRECTD26*
21,1,0.13398,0.01968,0,0,180.0*
21,1,0.10630,0.04737,0,0,180.0*
1,1,0.02769,-0.05315,0.00984*
1,1,0.02769,0.05315,0.00984*
1,1,0.02769,0.05315,-0.00984*
1,1,0.02769,-0.05315,-0.00984*
%
%ADD26ROUNDEDRECTD26*%
G04:AMPARAMS|DCode=27|XSize=43.43mil|YSize=43.43mil|CornerRadius=12.86mil|HoleSize=0mil|Usage=FLASHONLY|Rotation=270.000|XOffset=0mil|YOffset=0mil|HoleType=Round|Shape=RoundedRectangle|*
%AMROUNDEDRECTD27*
21,1,0.04343,0.01772,0,0,270.0*
21,1,0.01772,0.04343,0,0,270.0*
1,1,0.02572,-0.00886,-0.00886*
1,1,0.02572,-0.00886,0.00886*
1,1,0.02572,0.00886,0.00886*
1,1,0.02572,0.00886,-0.00886*
%
%ADD27ROUNDEDRECTD27*%
G04:AMPARAMS|DCode=28|XSize=39.5mil|YSize=39.5mil|CornerRadius=11.87mil|HoleSize=0mil|Usage=FLASHONLY|Rotation=180.000|XOffset=0mil|YOffset=0mil|HoleType=Round|Shape=RoundedRectangle|*
%AMROUNDEDRECTD28*
21,1,0.03950,0.01575,0,0,180.0*
21,1,0.01575,0.03950,0,0,180.0*
1,1,0.02375,-0.00787,0.00787*
1,1,0.02375,0.00787,0.00787*
1,1,0.02375,0.00787,-0.00787*
1,1,0.02375,-0.00787,-0.00787*
%
%ADD28ROUNDEDRECTD28*%
%ADD29R,0.03950X0.03950*%
G04:AMPARAMS|DCode=30|XSize=72.96mil|YSize=63.12mil|CornerRadius=17.78mil|HoleSize=0mil|Usage=FLASHONLY|Rotation=180.000|XOffset=0mil|YOffset=0mil|HoleType=Round|Shape=RoundedRectangle|*
%AMROUNDEDRECTD30*
21,1,0.07296,0.02756,0,0,180.0*
21,1,0.03740,0.06312,0,0,180.0*
1,1,0.03556,-0.01870,0.01378*
1,1,0.03556,0.01870,0.01378*
1,1,0.03556,0.01870,-0.01378*
1,1,0.03556,-0.01870,-0.01378*
%
%ADD30ROUNDEDRECTD30*%
G04:AMPARAMS|DCode=31|XSize=55.24mil|YSize=47.37mil|CornerRadius=13.84mil|HoleSize=0mil|Usage=FLASHONLY|Rotation=270.000|XOffset=0mil|YOffset=0mil|HoleType=Round|Shape=RoundedRectangle|*
%AMROUNDEDRECTD31*
21,1,0.05524,0.01968,0,0,270.0*
21,1,0.02756,0.04737,0,0,270.0*
1,1,0.02769,-0.00984,-0.01378*
1,1,0.02769,-0.00984,0.01378*
1,1,0.02769,0.00984,0.01378*
1,1,0.02769,0.00984,-0.01378*
%
%ADD31ROUNDEDRECTD31*%
%ADD32C,0.18800*%
%ADD33C,0.07099*%
%ADD34R,0.07099X0.07099*%
D23*
X49213Y49213D02*
D03*
D24*
X52953Y46260D02*
D03*
Y48228D02*
D03*
Y50197D02*
D03*
Y52165D02*
D03*
X45472Y46260D02*
D03*
Y48228D02*
D03*
Y50197D02*
D03*
D25*
Y52165D02*
D03*
D26*
X67323Y59055D02*
D03*
Y50394D02*
D03*
D27*
X52362Y39764D02*
D03*
X46063D02*
D03*
X23050Y39900D02*
D03*
X29350D02*
D03*
X72441Y39764D02*
D03*
X78740D02*
D03*
X65256Y32087D02*
D03*
X58957D02*
D03*
X65059Y39862D02*
D03*
X58760D02*
D03*
D28*
X79000Y34150D02*
D03*
D29*
Y27850D02*
D03*
D30*
X29823Y55413D02*
D03*
Y65650D02*
D03*
D31*
X53150Y62598D02*
D03*
X45276D02*
D03*
D32*
X15000Y15000D02*
D03*
X85000Y85000D02*
D03*
X15000D02*
D03*
X85000Y15000D02*
D03*
D33*
X8366Y59803D02*
D03*
Y49803D02*
D03*
X90158Y39213D02*
D03*
Y49213D02*
D03*
D34*
X8366Y39803D02*
D03*
X90158Y59213D02*
D03*
M02*
